<svg width="117" height="116" viewBox="0 0 117 116" fill="none" xmlns="http://www.w3.org/2000/svg">
<path d="M59.16 71.47L45.16 57.47L37.79 64.84C35.8969 66.5041 33.4412 67.3851 30.9219 67.3041C28.4026 67.2231 26.0086 66.1861 24.2263 64.4037C22.444 62.6214 21.407 60.2274 21.3259 57.7081C21.2449 55.1889 22.1259 52.7332 23.79 50.84L51.79 22.73C53.6505 20.8809 56.167 19.8431 58.79 19.8431C61.4131 19.8431 63.9296 20.8809 65.79 22.73L79.79 8.73001C74.2049 3.15535 66.6362 0.0244141 58.745 0.0244141C50.8539 0.0244141 43.2851 3.15535 37.7 8.73001L9.70003 36.76C4.11855 42.3415 0.98291 49.9116 0.98291 57.805C0.98291 65.6984 4.11855 73.2685 9.70004 78.85C15.2815 84.4315 22.8516 87.5671 30.745 87.5671C38.6384 87.5671 46.2086 84.4315 51.79 78.85L59.16 71.47ZM107.9 36.76C102.315 31.1853 94.7462 28.0544 86.855 28.0544C78.9639 28.0544 71.3951 31.1853 65.81 36.76L58.44 44.13L72.44 58.13L79.81 50.76C80.7055 49.7412 81.8005 48.9169 83.0271 48.338C84.2538 47.7591 85.5862 47.438 86.9419 47.3944C88.2976 47.3508 89.6479 47.5856 90.9092 48.0845C92.1705 48.5834 93.3162 49.3356 94.2753 50.2947C95.2344 51.2539 95.9867 52.3995 96.4855 53.6608C96.9844 54.9222 97.2193 56.2724 97.1757 57.6281C97.1321 58.9839 96.8109 60.3162 96.232 61.5429C95.6531 62.7696 94.8288 63.8645 93.81 64.76L65.82 92.88C63.9596 94.7291 61.4431 95.7669 58.82 95.7669C56.197 95.7669 53.6805 94.7291 51.82 92.88L37.82 106.88C43.4051 112.455 50.9739 115.586 58.865 115.586C66.7562 115.586 74.3249 112.455 79.91 106.88L107.97 78.82C113.528 73.2282 116.642 65.6614 116.631 57.7776C116.619 49.8938 113.484 42.3359 107.91 36.76H107.9Z" fill="black"/>
</svg>
